<?xml version="1.0" standalone="no"?>
<!DOCTYPE svg PUBLIC "-//W3C//DTD SVG 20010904//EN"
 "http://www.w3.org/TR/2001/REC-SVG-20010904/DTD/svg10.dtd">
<svg version="1.0" xmlns="http://www.w3.org/2000/svg"
 width="75.000000pt" height="77.000000pt" viewBox="0 0 75.000000 77.000000"
 preserveAspectRatio="xMidYMid meet">

<g transform="translate(0.000000,77.000000) scale(0.100000,-0.100000)"
fill="#000000" stroke="none">
<path d="M442 653 c-12 -2 -20 -9 -17 -14 4 -5 -1 -9 -9 -9 -8 0 -17 -4 -20
-9 -4 -5 4 -7 16 -4 17 4 12 -3 -17 -24 -22 -16 -46 -37 -54 -46 -7 -9 -20
-17 -27 -17 -8 0 -14 -5 -14 -10 0 -7 -8 -7 -22 1 -18 9 -20 9 -12 0 15 -16
35 -19 122 -20 57 -1 72 -4 72 -16 0 -16 -13 -18 -113 -15 l-58 1 3 -93 3 -93
90 0 90 0 3 63 c2 44 7 62 15 59 19 -6 16 -135 -3 -147 -23 -15 -193 -12 -213
2 -12 10 -16 34 -18 113 -2 56 0 106 4 112 4 6 3 14 -3 18 -5 3 -10 5 -11 3
-1 -6 -9 -38 -12 -50 -6 -27 -27 -54 -56 -73 -22 -14 -31 -28 -32 -50 -2 -30
-2 -30 -9 5 -5 22 -8 27 -9 13 0 -12 -9 -26 -18 -32 -14 -8 -15 -11 -4 -25 8
-9 11 -19 7 -23 -3 -3 -6 -1 -6 5 0 7 -5 12 -10 12 -15 0 -5 -81 14 -117 8
-17 30 -42 48 -55 31 -22 44 -23 204 -26 196 -4 224 3 270 64 29 37 29 38 32
203 3 157 2 169 -20 211 -36 70 -112 101 -206 83z m74 -174 c7 -12 -113 -139
-131 -139 -16 0 -60 49 -51 57 4 4 16 1 28 -6 19 -12 26 -8 77 43 59 59 66 63
77 45z"/>
<path d="M134 608 l-19 -23 23 19 c21 18 27 26 19 26 -2 0 -12 -10 -23 -22z"/>
</g>
</svg>
